<svg id="Layer_1" data-name="Layer 1" xmlns="http://www.w3.org/2000/svg" viewBox="0 0 512 512"><path d="M238.26,260.85a6.54,6.54,0,0,1-6.54-6.54V233.54H198.84a6.55,6.55,0,0,1-5.12-10.61l39.42-49.54a6.55,6.55,0,0,1,11.67,4.09v43h5.77a6.55,6.55,0,0,1,0,13.09h-5.77v20.77A6.54,6.54,0,0,1,238.26,260.85Zm-25.84-40.4h19.3V196.19Z" style="fill:#123d35"/><path d="M183.11,260H146.8a8.16,8.16,0,0,1-6.59-12.93l34.49-47.67A9.72,9.72,0,0,0,166.83,184a10.8,10.8,0,0,0-10.78,10.77,6.54,6.54,0,0,1-13.08,0,23.88,23.88,0,0,1,23.86-23.86,22.81,22.81,0,0,1,18.48,36.18L156.5,247h26.61a6.55,6.55,0,1,1,0,13.09Z" style="fill:#123d35"/><path d="M183.11,260H146.8a8.16,8.16,0,0,1-6.59-12.93l34.49-47.67A9.72,9.72,0,0,0,166.83,184a10.8,10.8,0,0,0-10.78,10.77,6.54,6.54,0,0,1-13.08,0,23.88,23.88,0,0,1,23.86-23.86,22.81,22.81,0,0,1,18.48,36.18L156.5,247h26.61a6.55,6.55,0,1,1,0,13.09Z" style="fill:#123d35"/><path d="M231.42,321.49A6.51,6.51,0,0,1,226.25,311L301,214.26a6.54,6.54,0,0,1,10.63,7.63l-.28.36L236.6,319A6.48,6.48,0,0,1,231.42,321.49Z" style="fill:#123d35"/><path d="M304,362.41a6.31,6.31,0,0,1-2.76-.61,6.55,6.55,0,0,1-3.18-8.69h0l27.79-60H297.2a6.55,6.55,0,1,1,0-13.09H336a6.54,6.54,0,0,1,5.94,9.3l-32.08,69.27A6.57,6.57,0,0,1,304,362.41Z" style="fill:#123d35"/><path d="M238.26,260.85a6.54,6.54,0,0,1-6.54-6.54V233.54H198.84a6.55,6.55,0,0,1-5.12-10.61l39.42-49.54a6.55,6.55,0,0,1,11.67,4.09v43h5.77a6.55,6.55,0,0,1,0,13.09h-5.77v20.77A6.54,6.54,0,0,1,238.26,260.85Zm-25.84-40.4h19.3V196.19Z" style="fill:#123d35"/><path d="M183.11,260H146.8a8.16,8.16,0,0,1-6.59-12.93l34.49-47.67A9.72,9.72,0,0,0,166.83,184a10.8,10.8,0,0,0-10.78,10.77,6.54,6.54,0,0,1-13.08,0,23.88,23.88,0,0,1,23.86-23.86,22.81,22.81,0,0,1,18.48,36.18L156.5,247h26.61a6.55,6.55,0,1,1,0,13.09Z" style="fill:#123d35"/><path d="M231.42,321.49A6.51,6.51,0,0,1,226.25,311L301,214.26a6.54,6.54,0,0,1,10.63,7.63l-.28.36L236.6,319A6.48,6.48,0,0,1,231.42,321.49Z" style="fill:#123d35"/><path d="M304,362.41a6.31,6.31,0,0,1-2.76-.61,6.55,6.55,0,0,1-3.18-8.69h0l27.79-60H297.2a6.55,6.55,0,1,1,0-13.09H336a6.54,6.54,0,0,1,5.94,9.3l-32.08,69.27A6.57,6.57,0,0,1,304,362.41Z" style="fill:#123d35"/><path d="M240.62,118.1a6.54,6.54,0,0,1-6.54-6.55V85.66a6.55,6.55,0,0,1,13.09,0v25.89A6.55,6.55,0,0,1,240.62,118.1Z" style="fill:#123d35"/><path d="M96.14,262.61H70.22a6.55,6.55,0,0,1,0-13.09H96.14a6.55,6.55,0,0,1,0,13.09Z" style="fill:#123d35"/><path d="M240.62,433a6.54,6.54,0,0,1-6.54-6.54V400.55a6.55,6.55,0,0,1,13.09,0v25.89A6.54,6.54,0,0,1,240.62,433Z" style="fill:#123d35"/><path d="M411,262.61H385.11a6.55,6.55,0,0,1,0-13.09H411a6.55,6.55,0,1,1,0,13.09Z" style="fill:#123d35"/><path d="M414.39,222.72A177,177,0,1,0,240.41,433a178.93,178.93,0,0,0,33.54-3.2,176.54,176.54,0,0,0,57-21.59A6.54,6.54,0,0,0,324.3,397a164.42,164.42,0,1,1,63.24-68.38,166.36,166.36,0,0,1-15,24.56l-.11-18.76a6.55,6.55,0,1,0-13.09.09l.26,40.43a6.59,6.59,0,0,0,6.54,6.52,6.69,6.69,0,0,0,2.85-.66l37.41-18.08a6.55,6.55,0,0,0-5.19-12c-.16.08-.33.15-.49.24l-16,7.71a176.15,176.15,0,0,0,29.61-135.93Z" style="fill:#123d35"/><path d="M387.77,157.71A176.95,176.95,0,0,0,65,278a6.58,6.58,0,0,0,6.5,5.72h0a6.54,6.54,0,0,0,6.55-6.53,7.92,7.92,0,0,0,0-.85,163.86,163.86,0,1,1,326.4-15q-.23,7.54-1.16,15a6.51,6.51,0,0,0,5.65,7.29,7.37,7.37,0,0,0,.82.05h0a6.53,6.53,0,0,0,6.49-5.72q1-8.11,1.29-16.24a178.78,178.78,0,0,0-3.13-39A175.7,175.7,0,0,0,387.77,157.71Z" style="fill:#123d35"/><path d="M104.36,347.13A162.89,162.89,0,0,1,88.07,316a6.53,6.53,0,0,0-8.47-3.71,6.62,6.62,0,0,0-1.39.74h0a6.59,6.59,0,0,0-2.31,7.76A176.4,176.4,0,0,0,93.47,354.4c.87,1.28,1.75,2.57,2.64,3.83a6.6,6.6,0,0,0,9.14,1.59h0a6.54,6.54,0,0,0,1.55-9.12v0C106,349.51,105.16,348.32,104.36,347.13Z" style="fill:#123d35"/></svg>