<svg id="Layer_1" data-name="Layer 1" xmlns="http://www.w3.org/2000/svg" viewBox="0 0 512 512"><path d="M164.78,224.88c-4,5.11-7.93,10.23-14.1,18.17-3.43-10-6-17.43-8.61-24.89-1.45-4.15-1.82-9.82-4.76-12-3.76-2.8-10.27-4.75-14.37-3.39-3.54,1.18-7.71,7.65-7.47,11.53a97.87,97.87,0,0,0,5.9,26.77c2.38,6.61,3,11.64-2.28,17-3,3.07-5.06,7.18-8.72,12.56,15.75,0,29.86,0,44,0,17.12,0,23.08,7.35,21,24.61-3,25-5.59,50-8.2,75.06-1.24,11.91-7.73,19.29-17.22,19-10.09-.31-16.58-8.44-15.52-20.93,1.74-20.61,4.13-41.17,6.4-63.24-16,0-31.49.17-47-.11-4.34-.07-9-.62-12.93-2.37C59.52,293,54.57,279.7,63.27,257.78s21.52-41.18,39-57.09c9.19-8.34,19.59-13.24,32.29-8.68,2.64.94,5.65,2.19,7.33,4.24,7.74,9.45,15.08,19.23,22.56,28.89Z" style="fill:#123d35"/><path d="M400.64,265.16c13.16-10.35,12-24.28,8.66-38.11-1.7-7-5.28-13.63-8.86-20-5.08-9-11.83-11.18-18.88-7.12-7.24,4.15-8.77,12.07-4.06,20.65a90.08,90.08,0,0,1,4.83,9.3c4.44,10.95.67,19-11.17,21.79a83.1,83.1,0,0,1-21.74,2c-8.5-.29-24.84-32-20.31-39.4,1.75-2.84,6-6,8.89-5.8,3.41.19,7.68,3.13,9.7,6.14,4.1,6.11,6.94,13.06,10.29,19.67l2.44-.58c.79-7.42,1.75-14.82,2.32-22.26,1.14-14.89,13.32-24.58,27.68-20.47a51,51,0,0,1,18.83,10.51c18.57,16.28,31.26,36.74,39.88,59.82,8.29,22.23-6.05,43.39-29.91,43.71-16.19.21-32.39,0-49.17,0,2.3,21.15,4.35,41.36,6.75,61.53,1.4,11.75-4,20.93-13.9,22.51-9.31,1.48-17.43-5.26-18.86-17.11-3.23-26.87-6-53.81-8.57-80.76-.44-4.66,1.16-9.51,1.81-14.22,20.17,8.74,37.53,3.32,54.52-4,3.55-1.55,6.11-5.38,9.13-8.16Z" style="fill:#123d35"/><path d="M381,387.93c5.3-21.82,9.81-42.46,15.44-62.79,2.82-10.17,10.12-15.25,21.63-14.53a378.1,378.1,0,0,0,40.12.12c9.37-.41,15.12,3.73,18.82,11.64,9.61,20.52,12,42.53,14,65.56Z" style="fill:#123d35"/><path d="M127.21,388.93H20c1.87-22.66,4.32-44.58,13.56-65.18,3.94-8.8,10.32-12.9,20.34-12.47,13.36.57,26.78.43,40.15-.08,9.61-.37,15.64,3.8,19.55,12.17C123.21,343.94,125.58,365.92,127.21,388.93Z" style="fill:#123d35"/><path d="M294.41,388.94c-12.71-5-10.76-18.31-15.66-28.2H231.59c-8.35,28.24-8.35,28.24-17,27.54,11.16-22.06,14.16-44.78,6.11-68.41-.41-1.21-.84-2.4-1.31-3.58-5.87-14.47-5.87-14.57-21.37-14.49-5.86,0-10.87,0-10.8-8.13.06-6.6,1.83-9.85,9.28-9.79q58.8.42,117.62,0c6.62,0,9.28,2.46,9.35,8.86s-2.27,9-9,9.1c-18.05.15-19.18,1.24-25,18.79C281.78,344,284.83,366.44,294.41,388.94Zm-4.91-86.65H220.81c2.76,7.08,5,13.63,7.91,19.88.85,1.83,3.44,4,5.29,4.05,14,.36,28,.32,42,.12,1.83,0,4.63-1.29,5.27-2.74C284.28,316.76,286.72,309.66,289.5,302.29Z" style="fill:#123d35"/><path d="M201.52,173.85c0,16.84-13.54,31-29.73,31-16.37,0-29.79-14-29.76-30.94,0-16.81,13.76-31.18,29.75-31.18C187.93,142.75,201.47,156.91,201.52,173.85Z" style="fill:#123d35"/><path d="M368.88,174.44c-.22,17-13.92,30.8-30.19,30.41s-29.69-14.93-29.3-31.53c.4-16.78,14.5-30.95,30.37-30.52C355.93,143.23,369.1,157.54,368.88,174.44Z" style="fill:#123d35"/><path d="M164.5,225.14c2.46-3.85,5-7.63,7.37-11.56,3.18-5.39,7.71-7.94,13.57-5.3,6.11,2.74,8.73,8.6,5.61,14.26-6.85,12.45-13.53,25.4-22.72,36-12.07,14-29,11.88-37.78-4.54-6.16-11.52-9.48-24.69-13.06-37.41-1.79-6.36,2.31-11.48,8.69-12.66,6.76-1.25,10.28,3.17,12.09,9.45,3.1,10.74,6.54,21.39,9.84,32.08l4.77.56q6-10.59,11.91-21.19Z" style="fill:#123d35"/><path d="M400.94,264.86c-14.71,9.49-30.56,14.56-48.32,13.75-7.57-.35-12.87-3-12.91-10.72s5.07-10.56,12.74-10.93a99.76,99.76,0,0,0,23.43-3.72c11.05-3.28,14-9.69,10.36-20.59a74,74,0,0,0-6.11-12.88c-3.54-6.26-4.57-12.62,2-16.82,7.21-4.58,12.59-.42,16.51,6,11.2,18.36,13.93,37,2,56.2Z" style="fill:#123d35"/><path d="M178,252.64c2.4-3.93,4.09-6.58,5.68-9.3,6.23-10.7,8.38-11.43,20-7.3,6.14,2.19,8.48,6.6,7.38,12.64-1.15,6.25-5.38,9.05-11.71,8.59a23.75,23.75,0,0,1-3.79-.4C190,255.59,184.51,254.22,178,252.64Z" style="fill:#123d35"/><path d="M211.6,278.61h87.48l0,2H211.72Z" style="fill:#123d35"/><path d="M223.56,264.78l.14-.36s0-.07,0-.09c0-.24.17-.38.26-.56a3.3,3.3,0,0,1,.23-.41c.13-.18.29-.35.43-.53a3.93,3.93,0,0,1,1-.86,3.76,3.76,0,0,1,2-.65,11,11,0,0,1,1.52.06,6.9,6.9,0,0,1,1.78.48c.12.05.12.13.07.22s-.15.22-.21.33a6.45,6.45,0,0,0-.29.59c-.09.23,0,.36.24.44a3.32,3.32,0,0,1,.55.22.34.34,0,0,1,.16.23,1.87,1.87,0,0,0,.67,1.23l.95.83a.27.27,0,0,0,.12.06.62.62,0,0,1,.61.5,1.68,1.68,0,0,1,.09.8.42.42,0,0,1-.11.22,3.87,3.87,0,0,1-.56.44.58.58,0,0,1-.82-.09,1.68,1.68,0,0,0-.91-.43c-.18-.05-.36-.15-.54-.21a.56.56,0,0,0-.28,0,2.37,2.37,0,0,1-1.51,0,.18.18,0,0,0-.26.1,2.22,2.22,0,0,0-.19,1.14.76.76,0,0,1,0,.15c-.11.31.08.47.28.65a4.68,4.68,0,0,1,1.11,1.28,7.09,7.09,0,0,1,.53,1.27,7.87,7.87,0,0,1,.31,1.18,5.93,5.93,0,0,1,.06.84.57.57,0,0,0,.2.47c.05,0,.09.15.06.18a.39.39,0,0,0,0,.35.23.23,0,0,1-.27.28c-.11,0-.21,0-.31,0a1,1,0,0,0-.23.06c0,.08,0,.19.09.24l1.31,1.16a1,1,0,0,1,.26.36.48.48,0,0,1-.17.56c-.16.14-.15.22,0,.34a.53.53,0,0,1,.08.78.57.57,0,0,1-.47.2h-7.44a.59.59,0,0,1-.53-.44.49.49,0,0,1,.27-.55c.17-.1.17-.2,0-.32a.53.53,0,0,1-.06-.78l1.44-1.31a.23.23,0,0,0,.08-.18s-.11-.07-.17-.08a1.61,1.61,0,0,0-.31,0q-.39,0-.3-.36s0,0,0-.05c-.16-.28.15-.49.12-.76s0-.54-.07-.82l-.09-1.59a2,2,0,0,0-.08-.33,1.34,1.34,0,0,0-.3.12,4.25,4.25,0,0,0-.47.48c-.17.2-.25.22-.39,0a1.86,1.86,0,0,1-.19-.46c-.08-.38-.14-.77-.21-1.15s-.1-.6-.11-.9a8,8,0,0,1,0-1.62c.07-.37.09-.74.17-1.11s.19-.8.28-1.2c0,0,.05-.13.07-.12s.1-.1.12-.17a2.36,2.36,0,0,1,.12-.28Z" style="fill:#123d35"/><path d="M274.14,277.54a1.39,1.39,0,0,1,.29.31.62.62,0,0,1-.56.92H266c-.36,0-.72-.36-.65-.68a2.23,2.23,0,0,1,.33-.55h.06l-.09-.12a.68.68,0,0,1,.08-1.08c.41-.38.83-.75,1.25-1.12.17-.14.29-.27.21-.53a1.35,1.35,0,0,1,0-.53c0-.19.13-.26.36-.27.42,0,.41,0,.53-.4a14.47,14.47,0,0,0,.5-3c.06-1.13.09-2.27.13-3.41,0-.19-.07-.24-.24-.23a.5.5,0,0,1-.42-.1.42.42,0,0,1,0-.68.42.42,0,0,0,.16-.27.57.57,0,0,1,.25-.26c.09,0,.19,0,.18-.17s0-.29-.16-.36-.35-.25-.25-.47a1.21,1.21,0,0,1,.19-.23l-.65-1.14c-.25-.45-.5-.89-.74-1.35a6.7,6.7,0,0,1-.5-1.65c-.08-.46-.19-.9-.28-1.36,0-.07,0-.15,0-.22a.72.72,0,0,1,.22.08l.61.45c.21.14.36,0,.52-.11l.93-.47a.44.44,0,0,1,.25,0c.12.05.15,0,.19-.1a.93.93,0,0,1,1-.67.87.87,0,0,1,.86.71.73.73,0,0,0,.1.2c.4-.37.69,0,1,.13a2.74,2.74,0,0,1,.46.29c.16.11.28,0,.4-.07s.32-.28.49-.41a.13.13,0,0,1,.21.13c-.08.43-.17.86-.26,1.3-.06.28-.15.56-.21.85a5.14,5.14,0,0,1-.59,1.41l-1.14,2,.1.11c.23.25.18.48-.14.57s-.19.18-.2.33.09.17.21.22a.44.44,0,0,1,.25.25.41.41,0,0,0,.17.28.4.4,0,0,1,.15.5.39.39,0,0,1-.45.27h-.17c-.13,0-.18.06-.18.18a31.94,31.94,0,0,0,.15,3.79c.07.53.13,1.06.23,1.58s.21.86.33,1.29a.25.25,0,0,0,.28.21,1.31,1.31,0,0,1,.28,0,.31.31,0,0,1,.26.35,3.11,3.11,0,0,0,0,.68c0,.1.14.19.22.27.47.44,1,.85,1.41,1.3a.58.58,0,0,1,0,.89Z" style="fill:#123d35"/><path d="M260.43,259.82c.32.15.27.44.28.7s.05.3.29.32a3,3,0,0,1,1.24.38.54.54,0,0,1,.17.72l-.82,1.46c-.16.28-.3.55-.46.82a.19.19,0,0,0,0,.26c.23.23.18.4-.13.48a.2.2,0,0,0-.19.22,1,1,0,0,0,0,.24c0,.07.1.16.16.17s.32.11.3.34c0,.05.07.11.12.15a.39.39,0,0,1,.19.47c-.05.17-.19.25-.41.24s-.42,0-.42.38c0,.61,0,1.22,0,1.84,0,.37,0,.75.05,1.13.06.62.13,1.24.24,1.85s.26,1.17.41,1.75c0,.22.17.28.39.24s.42,0,.39.38a3.82,3.82,0,0,0,0,.59.2.2,0,0,0,.08.14c.48.43,1,.86,1.45,1.28a.68.68,0,0,1,.27.76,1.71,1.71,0,0,1-.29.43,1.79,1.79,0,0,1,.31.36.54.54,0,0,1-.59.77l-.37,0h-7.4c-.3,0-.48-.1-.55-.31a.58.58,0,0,1,.22-.68c.16-.11.14-.17,0-.29a.57.57,0,0,1,0-.88c.33-.33.68-.62,1-.93l.58-.53a.22.22,0,0,0,.05-.14c0-.23-.06-.46-.07-.69a.21.21,0,0,1,.25-.24c.47.08.6-.21.69-.57.05-.19.12-.38.16-.58.08-.5.17-1,.23-1.51.08-.71.17-1.42.2-2.13s0-1.45,0-2.17a.22.22,0,0,0-.24-.24h-.22a.28.28,0,0,1-.35-.2.42.42,0,0,1,.15-.49.34.34,0,0,0,.16-.24.37.37,0,0,1,.23-.24c.12,0,.2-.07.2-.21s0-.36-.16-.44-.37-.25-.14-.52a.26.26,0,0,0,0-.19l-.84-1.46-.48-.85a.55.55,0,0,1,.2-.73,2.44,2.44,0,0,1,1.17-.37c.31,0,.34,0,.33-.36s0-.5.31-.62l0-.05h-.21a.51.51,0,0,1-.53-.55v-2.7a.5.5,0,0,1,.55-.56h2c.33,0,.48.15.48.49v2.8c0,.34-.11.47-.45.51Z" style="fill:#123d35"/><path d="M247.11,275.11l-.28-.05h-.37c-.2,0-.27-.16-.19-.34a.31.31,0,0,0,0-.19.25.25,0,0,1,.21-.37,1.58,1.58,0,0,1,.31,0,.32.32,0,0,0,.33-.22c.11-.29.23-.58.33-.88s.24-.82.32-1.24a9.31,9.31,0,0,0,.2-1.39c.06-.9.08-1.8.1-2.69A5.12,5.12,0,0,0,248,267c0-.16-.08-.25-.26-.24s-.27,0-.3-.18,0-.38.16-.44a.24.24,0,0,0,.19-.26c0-.08.05-.17.09-.3h-.57a.56.56,0,0,1-.62-.61v-2.06c0-.28.08-.34.36-.31h.15c.23,0,.3,0,.31.24a2.26,2.26,0,0,1,0,.26c0,.21.07.28.28.29s.26,0,.39,0,.23-.07.24-.23v-.33c0-.17.08-.26.25-.25a.7.7,0,0,1,.29,0,.42.42,0,0,1,.18.23.86.86,0,0,1,0,.28c0,.21.08.29.3.3h.36c.14,0,.24-.07.25-.23s0-.24,0-.37.05-.19.19-.18a2,2,0,0,0,.35,0c.18,0,.22.06.23.2s0,.22,0,.33,0,.12,0,.15c.18.23.43.12.65.12s.24-.13.24-.3c0-.51,0-.5.49-.5.18,0,.26.08.26.26s0,.56,0,.84c0,.46,0,.92,0,1.38a.42.42,0,0,1-.42.45,4.71,4.71,0,0,1-.53,0c-.05,0-.13,0-.15,0a.28.28,0,0,0,0,.18.58.58,0,0,0,.07.21c0,.06.06.15.12.18s.27.21.23.41-.19.22-.35.22-.3.1-.3.29c0,.77,0,1.55,0,2.32a3.05,3.05,0,0,0,0,.43c.1.76.17,1.52.33,2.26a19.08,19.08,0,0,0,.63,1.94.36.36,0,0,0,.41.23c.12,0,.35,0,.36.09a2.35,2.35,0,0,1,0,.7s-.15.08-.23.09-.26,0-.39,0-.19.08-.1.19l.25.25,1.2,1.06a.56.56,0,0,1,0,.88c-.16.15-.17.19,0,.33a.47.47,0,0,1,.22.44.43.43,0,0,1-.42.45c-.27,0-.54,0-.8,0H245.8a.42.42,0,0,1-.43-.28.53.53,0,0,1,.09-.55l.12-.1c.11-.1.15-.17,0-.29a.59.59,0,0,1,0-.9c.43-.4.88-.77,1.31-1.16A1.72,1.72,0,0,0,247.11,275.11Z" style="fill:#123d35"/><path d="M239.22,278.76h-3.78a.5.5,0,0,1-.48-.35.57.57,0,0,1,.16-.62c.22-.16.22-.17,0-.35a.49.49,0,0,1-.07-.68,2.41,2.41,0,0,1,.34-.37c.4-.37.81-.72,1.21-1.08a.48.48,0,0,0,.09-.29c0-.2,0-.39,0-.59a.21.21,0,0,1,.23-.21c.49,0,.49,0,.63-.51a14.1,14.1,0,0,0,.5-2.89c0-.49.07-1,.11-1.46,0-.24-.05-.32-.29-.33h-.18a.27.27,0,0,1-.3-.2.36.36,0,0,1,.12-.42c.07-.06.16-.15.16-.24a.27.27,0,0,1,.25-.27c.09,0,.23-.1.23-.15a.35.35,0,0,0-.15-.26,2.51,2.51,0,0,1-1.19-1.73,4,4,0,0,1,.19-1.89,10.41,10.41,0,0,1,.39-1.11,3.73,3.73,0,0,1,1.19-1.66c.09-.07.16-.12.12-.26s0-.35.2-.41a.79.79,0,0,1,.81.07.25.25,0,0,1,.1.32.19.19,0,0,0,.07.24,4.11,4.11,0,0,1,1.17,1.51,4.34,4.34,0,0,1,.33.87,7.05,7.05,0,0,1,.3,1.09,2.73,2.73,0,0,1-1,2.88c-.09.06-.2.09-.26.17a.3.3,0,0,0,0,.24.24.24,0,0,0,.21.1.2.2,0,0,1,.23.21.26.26,0,0,0,.18.27c.2.09.14.28.12.43s-.13.2-.27.2l-.21,0a.22.22,0,0,0-.26.24c.07.85.13,1.69.22,2.53a9.63,9.63,0,0,0,.21,1.29,8.83,8.83,0,0,0,.3,1c0,.13.13.17.26.16a2.44,2.44,0,0,1,.27,0,.24.24,0,0,1,.2.3,1,1,0,0,0,0,.29c0,.06,0,.12,0,.16s0,.29.13.4l.8.74a7.69,7.69,0,0,1,.66.61.49.49,0,0,1-.06.74c-.17.15-.17.21,0,.33a.57.57,0,0,1,.09.78.56.56,0,0,1-.47.2Z" style="fill:#123d35"/><path d="M216.44,278.76h-3.29a.43.43,0,0,1-.4-.28.45.45,0,0,1,.08-.55c.13-.11.16-.21,0-.34a.54.54,0,0,1,.06-.78c.41-.38.83-.75,1.25-1.12,0,0,.08-.08.08-.12a5.51,5.51,0,0,0-.06-.57.26.26,0,0,1,.28-.27c.33,0,.37,0,.45-.31a10.11,10.11,0,0,0,.34-1.34c.1-.63.15-1.28.19-1.92s0-1.1,0-1.65a4.71,4.71,0,0,0,0-.65c0-.17-.12-.23-.28-.22s-.27-.06-.27-.24.06-.3.25-.3.23,0,.26-.14-.06-.25-.19-.32a1.89,1.89,0,0,1-.82-.81,2.47,2.47,0,0,1,.73-3.34,2.22,2.22,0,0,1,1.73-.34,2.32,2.32,0,0,1,1.65,1.2,2.65,2.65,0,0,1,.29,1.52,2.3,2.3,0,0,1-.86,1.57,4,4,0,0,1-.43.29.22.22,0,0,0-.11.28c.05.13.14.12.26.12a.31.31,0,0,1,.22.08.43.43,0,0,1,0,.31c0,.07-.17.11-.26.11s-.3.09-.3.26c0,.69,0,1.39,0,2.09a10.45,10.45,0,0,0,.16,1.57c.12.69.3,1.37.46,2.05,0,.15.16.15.28.15.37,0,.37,0,.35.36,0,.15,0,.3,0,.45a.17.17,0,0,0,.07.12l1.3,1.18a.51.51,0,0,1,0,.76.17.17,0,0,0,0,.29.4.4,0,0,1,.19.48.52.52,0,0,1-.47.36Z" style="fill:#123d35"/><path d="M296.08,264.78l-.15-.36a.47.47,0,0,1,0-.09c0-.24-.16-.38-.25-.56a3.3,3.3,0,0,0-.23-.41l-.43-.53a4.3,4.3,0,0,0-1-.86,3.76,3.76,0,0,0-2-.65,11,11,0,0,0-1.52.06,7,7,0,0,0-1.79.48c-.12.05-.11.13-.06.22s.15.22.21.33a4.53,4.53,0,0,1,.28.59c.09.23,0,.36-.23.44a3.83,3.83,0,0,0-.56.22.36.36,0,0,0-.15.23,1.84,1.84,0,0,1-.68,1.23c-.32.27-.63.55-.94.83a.34.34,0,0,1-.12.06.62.62,0,0,0-.62.5,1.68,1.68,0,0,0-.08.8.41.41,0,0,0,.1.22,4,4,0,0,0,.57.44.56.56,0,0,0,.81-.09,1.74,1.74,0,0,1,.92-.43c.18-.05.35-.15.53-.21a.6.6,0,0,1,.29,0,2.37,2.37,0,0,0,1.51,0,.18.18,0,0,1,.26.1,2.33,2.33,0,0,1,.19,1.14.76.76,0,0,0,0,.15c.1.31-.08.47-.29.65a5,5,0,0,0-1.11,1.28,8.87,8.87,0,0,0-.83,2.45,6,6,0,0,0-.07.84.57.57,0,0,1-.2.47s-.08.15-.06.18a.39.39,0,0,1,0,.35c-.05.16.08.3.27.28s.21,0,.31,0a.9.9,0,0,1,.22.06.57.57,0,0,1-.08.24l-1.31,1.16a1,1,0,0,0-.26.36.49.49,0,0,0,.16.56c.17.14.16.22,0,.34a.53.53,0,0,0-.08.78.57.57,0,0,0,.46.2h7.45a.59.59,0,0,0,.53-.44.5.5,0,0,0-.27-.55c-.17-.1-.18-.2,0-.32a.53.53,0,0,0,.06-.78l-1.45-1.31a.26.26,0,0,1-.07-.18s.1-.07.16-.08a1.71,1.71,0,0,1,.32,0c.26,0,.36-.11.29-.36,0,0,0,0,0-.05.16-.28-.15-.49-.12-.76a7.36,7.36,0,0,0,.06-.82c0-.53.06-1.06.1-1.59a2,2,0,0,1,.08-.33,1.1,1.1,0,0,1,.29.12,3.63,3.63,0,0,1,.48.48c.17.2.24.22.38,0a1.57,1.57,0,0,0,.2-.46c.08-.38.14-.77.2-1.15a6.94,6.94,0,0,0,.12-.9,8,8,0,0,0,0-1.62c-.07-.37-.1-.74-.17-1.11s-.19-.8-.29-1.2c0,0,0-.13-.06-.12s-.1-.1-.12-.17a2.36,2.36,0,0,0-.12-.28Z" style="fill:#123d35"/><path d="M280.24,278.76H277c-.22,0-.31-.14-.4-.28a.44.44,0,0,1,.09-.55c.13-.11.15-.21,0-.34a.55.55,0,0,1,0-.78L278,275.7s.09-.08.08-.12A5.48,5.48,0,0,0,278,275c0-.14.1-.27.28-.27s.37,0,.45-.31a11.94,11.94,0,0,0,.34-1.34c.09-.63.14-1.28.18-1.92s0-1.1.05-1.65c0-.22,0-.43,0-.65s-.12-.23-.28-.22-.27-.06-.27-.24.07-.3.26-.3.22,0,.26-.14-.07-.25-.2-.32a1.89,1.89,0,0,1-.82-.81,2.5,2.5,0,0,1-.35-1.53,2.46,2.46,0,0,1,1.08-1.81,2.23,2.23,0,0,1,1.73-.34,2.32,2.32,0,0,1,1.66,1.2,2.64,2.64,0,0,1,.28,1.52,2.29,2.29,0,0,1-.85,1.57,4.17,4.17,0,0,1-.44.29.21.21,0,0,0-.1.28c0,.13.14.12.25.12a.32.32,0,0,1,.23.08.43.43,0,0,1,0,.31c0,.07-.17.11-.26.11s-.3.09-.3.26c0,.69,0,1.39,0,2.09a13.92,13.92,0,0,0,.16,1.57c.12.69.31,1.37.46,2.05,0,.15.17.15.29.15.36,0,.36,0,.34.36,0,.15,0,.3,0,.45a.29.29,0,0,0,.07.12l1.3,1.18a.5.5,0,0,1,0,.76c-.1.09-.11.19,0,.29a.38.38,0,0,1,.18.48.51.51,0,0,1-.46.36Z" style="fill:#123d35"/></svg>